<svg width="20" height="20" viewBox="0 0 20 20" fill="none" xmlns="http://www.w3.org/2000/svg">
<path d="M1.35498 4.59998H3.21532H18.0981" fill="#E1EEFD"/>
<path d="M1.35498 4.59998H3.21532H18.0981" stroke="#2E7BB4" stroke-width="2" stroke-linecap="round" stroke-linejoin="round"/>
<path d="M6.00585 4.6V2.8C6.00585 2.32261 6.20185 1.86477 6.55073 1.52721C6.89961 1.18964 7.37279 1 7.86619 1H11.5869C12.0803 1 12.5535 1.18964 12.9023 1.52721C13.2512 1.86477 13.4472 2.32261 13.4472 2.8V4.6M16.2377 4.6V17.2C16.2377 17.6774 16.0417 18.1352 15.6928 18.4728C15.344 18.8104 14.8708 19 14.3774 19H5.07567C4.58228 19 4.1091 18.8104 3.76021 18.4728C3.41133 18.1352 3.21533 17.6774 3.21533 17.2V4.6H16.2377Z" stroke="#2E7BB4" stroke-width="2" stroke-linecap="round" stroke-linejoin="round"/>
</svg>
