<svg width="110" height="40" viewBox="0 0 110 40" fill="none" xmlns="http://www.w3.org/2000/svg">
<rect x="1.125" y="1.125" width="107.397" height="37.75" rx="18.8234" fill="#5C9ECF"/>
<path d="M38.8978 26.3061C38.4106 26.3061 38.0617 26.2337 37.851 26.0888C37.6535 25.944 37.5284 25.7531 37.4758 25.5161C37.4231 25.2791 37.3968 25.0355 37.3968 24.7853V14.0018C37.3968 13.7517 37.4231 13.5147 37.4758 13.2908C37.5284 13.0538 37.6601 12.8629 37.8708 12.7181C38.0814 12.5732 38.4304 12.5008 38.9175 12.5008H42.9663C43.5193 12.5008 44.0723 12.5996 44.6253 12.7971C45.1914 12.9946 45.7115 13.304 46.1855 13.7253C46.6727 14.1335 47.0611 14.6404 47.3508 15.2461C47.6536 15.8517 47.805 16.5627 47.805 17.3791C47.805 18.1822 47.6536 18.8867 47.3508 19.4923C47.0611 20.098 46.6727 20.6049 46.1855 21.0131C45.7115 21.4081 45.1914 21.7109 44.6253 21.9216C44.0591 22.1191 43.4995 22.2178 42.9465 22.2178H40.4185V24.8051C40.4185 25.0552 40.3922 25.2988 40.3395 25.5358C40.2869 25.7597 40.1552 25.944 39.9445 26.0888C39.7339 26.2337 39.3849 26.3061 38.8978 26.3061ZM40.4185 19.2158H42.9663C43.2559 19.2158 43.539 19.1566 43.8155 19.0381C44.1052 18.9064 44.3422 18.7023 44.5265 18.4258C44.724 18.1493 44.8228 17.7938 44.8228 17.3593C44.8228 16.9907 44.7438 16.6681 44.5858 16.3916C44.4278 16.1151 44.2039 15.8978 43.9143 15.7398C43.6378 15.5818 43.3152 15.5028 42.9465 15.5028H40.4185V19.2158ZM57.1405 26.2863C56.6533 26.2863 56.2912 26.2007 56.0542 26.0296C55.8304 25.8584 55.7185 25.6477 55.7185 25.3976L55.916 25.0618C55.837 25.1935 55.6855 25.3581 55.4617 25.5556C55.2379 25.7399 54.9482 25.9111 54.5927 26.0691C54.2372 26.2139 53.7961 26.2863 53.2695 26.2863C52.6638 26.2863 52.0845 26.1547 51.5315 25.8913C50.9916 25.628 50.511 25.2659 50.0897 24.8051C49.6684 24.3311 49.3326 23.7978 49.0825 23.2053C48.8455 22.6128 48.727 21.9874 48.727 21.3291C48.727 20.6839 48.8455 20.0717 49.0825 19.4923C49.3326 18.8998 49.6684 18.3797 50.0897 17.9321C50.5242 17.4712 51.0114 17.1092 51.5512 16.8458C52.091 16.5825 52.6638 16.4508 53.2695 16.4508C53.7566 16.4508 54.1714 16.5232 54.5137 16.6681C54.856 16.7997 55.1391 16.9577 55.363 17.1421C55.6 17.3264 55.7777 17.5042 55.8962 17.6753L55.7382 17.3988C55.725 17.0828 55.8304 16.8458 56.0542 16.6878C56.2912 16.5167 56.6599 16.4311 57.1602 16.4311C57.6342 16.4311 57.97 16.5035 58.1675 16.6483C58.3781 16.7932 58.5032 16.9841 58.5427 17.2211C58.5954 17.4581 58.6217 17.7082 58.6217 17.9716V24.7853C58.6217 25.0355 58.5954 25.2791 58.5427 25.5161C58.5032 25.7531 58.3781 25.944 58.1675 26.0888C57.97 26.2205 57.6276 26.2863 57.1405 26.2863ZM53.704 23.3436C54.0463 23.3436 54.3557 23.258 54.6322 23.0868C54.9219 22.9025 55.1457 22.6589 55.3037 22.3561C55.4749 22.0532 55.5605 21.7175 55.5605 21.3488C55.5605 20.967 55.4749 20.6312 55.3037 20.3416C55.1325 20.0387 54.9021 19.8017 54.6125 19.6306C54.3228 19.4462 54.0068 19.3541 53.6645 19.3541C53.2826 19.3541 52.9403 19.4462 52.6375 19.6306C52.3478 19.8149 52.1108 20.0585 51.9265 20.3613C51.7553 20.6642 51.6697 21.0065 51.6697 21.3883C51.6697 21.7438 51.7553 22.073 51.9265 22.3758C52.1108 22.6655 52.3544 22.9025 52.6572 23.0868C52.9732 23.258 53.3221 23.3436 53.704 23.3436ZM64.0031 26.3061C63.4633 26.3061 62.9827 26.2732 62.5614 26.2073C62.1532 26.1547 61.7977 26.0493 61.4949 25.8913C61.2052 25.7333 60.9682 25.5161 60.7839 25.2396C60.5995 24.9631 60.4613 24.6076 60.3691 24.1731C60.2901 23.7254 60.2506 23.179 60.2506 22.5338V13.4093C60.2506 13.146 60.2704 12.9024 60.3099 12.6786C60.3625 12.4547 60.4942 12.2704 60.7049 12.1256C60.9155 11.9807 61.2579 11.9083 61.7319 11.9083C62.2059 11.9083 62.5416 11.9807 62.7391 12.1256C62.9498 12.2704 63.0815 12.4547 63.1341 12.6786C63.1868 12.9024 63.2131 13.146 63.2131 13.4093V22.3956C63.2131 22.6062 63.2197 22.784 63.2329 22.9288C63.2592 23.0605 63.2987 23.1658 63.3514 23.2448C63.4172 23.3238 63.5028 23.3765 63.6081 23.4028C63.7135 23.4292 63.8517 23.4423 64.0229 23.4423C64.1809 23.4423 64.3389 23.4621 64.4969 23.5016C64.668 23.5411 64.8129 23.6596 64.9314 23.8571C65.0499 24.0546 65.1091 24.3837 65.1091 24.8446C65.1091 25.3186 65.0499 25.6609 64.9314 25.8716C64.8129 26.0822 64.668 26.2073 64.4969 26.2468C64.3389 26.2863 64.1743 26.3061 64.0031 26.3061ZM71.326 26.1283C70.6809 26.1283 70.1081 26.0032 69.6078 25.7531C69.1206 25.4897 68.7125 25.1408 68.3833 24.7063C68.0673 24.2587 67.8237 23.7452 67.6525 23.1658C67.4945 22.5865 67.4221 21.9611 67.4353 21.2896C67.4353 20.6444 67.5209 20.0322 67.692 19.4528C67.8632 18.8603 68.1068 18.3402 68.4228 17.8926C68.752 17.4317 69.1535 17.0762 69.6275 16.8261C70.1147 16.5627 70.6809 16.4311 71.326 16.4311C71.9054 16.4311 72.465 16.5627 73.0048 16.8261C73.5578 17.0894 74.045 17.4515 74.4663 17.9123C74.8876 18.36 75.2168 18.8801 75.4538 19.4726C75.704 20.0651 75.829 20.6905 75.829 21.3488C75.829 22.0072 75.704 22.6326 75.4538 23.2251C75.2168 23.8044 74.8876 24.3113 74.4663 24.7458C74.045 25.1803 73.5644 25.5227 73.0245 25.7728C72.4847 26.0098 71.9185 26.1283 71.326 26.1283ZM67.5143 30.3943C67.0403 30.3943 66.698 30.3219 66.4873 30.1771C66.2898 30.0454 66.1647 29.8677 66.112 29.6438C66.0725 29.4332 66.0528 29.2027 66.0528 28.9526V17.9123C66.0528 17.649 66.0725 17.412 66.112 17.2013C66.1515 16.9775 66.27 16.7932 66.4675 16.6483C66.6782 16.5035 67.0205 16.4311 67.4945 16.4311C67.9027 16.4311 68.2253 16.4903 68.4623 16.6088C68.7125 16.7273 68.8902 16.9117 68.9955 17.1618V28.9328C69.0087 29.183 68.989 29.42 68.9363 29.6438C68.8836 29.8677 68.752 30.0454 68.5413 30.1771C68.3438 30.3219 68.0015 30.3943 67.5143 30.3943ZM70.9113 23.3436C71.28 23.3436 71.6091 23.258 71.8988 23.0868C72.1885 22.9025 72.4189 22.6589 72.59 22.3561C72.7744 22.0532 72.8665 21.7175 72.8665 21.3488C72.8665 20.967 72.781 20.6312 72.6098 20.3416C72.4386 20.0387 72.2082 19.8017 71.9185 19.6306C71.6289 19.4594 71.2997 19.3738 70.931 19.3738C70.5755 19.3738 70.2464 19.466 69.9435 19.6503C69.6539 19.8215 69.4235 20.0585 69.2523 20.3613C69.0943 20.651 69.0153 20.9802 69.0153 21.3488C69.0153 21.7175 69.1009 22.0532 69.272 22.3561C69.4432 22.6589 69.6736 22.9025 69.9633 23.0868C70.253 23.258 70.569 23.3436 70.9113 23.3436ZM77.74 22.4351C77.5557 22.4351 77.3648 22.4153 77.1673 22.3758C76.9698 22.3232 76.8052 22.2047 76.6735 22.0203C76.5418 21.8228 76.476 21.5002 76.476 21.0526C76.476 20.6049 76.5418 20.2889 76.6735 20.1046C76.8183 19.9202 76.9895 19.8083 77.187 19.7688C77.3845 19.7162 77.5754 19.6898 77.7598 19.6898H82.3813C82.5788 19.6898 82.7763 19.7162 82.9738 19.7688C83.1713 19.8083 83.3358 19.9268 83.4675 20.1243C83.5992 20.3087 83.665 20.6181 83.665 21.0526C83.665 21.5002 83.5992 21.8228 83.4675 22.0203C83.349 22.2047 83.191 22.3232 82.9935 22.3758C82.796 22.4153 82.5919 22.4351 82.3813 22.4351H77.74ZM86.7486 26.3061C86.2615 26.3061 85.9126 26.2402 85.7019 26.1086C85.5044 25.9637 85.3793 25.7794 85.3266 25.5556C85.2871 25.3186 85.2674 25.075 85.2674 24.8248V17.9321C85.2674 17.6687 85.2871 17.4252 85.3266 17.2013C85.3793 16.9775 85.511 16.7997 85.7216 16.6681C85.9323 16.5232 86.2812 16.4508 86.7684 16.4508C87.2424 16.4508 87.5781 16.5232 87.7756 16.6681C87.9863 16.8129 88.1114 16.9972 88.1509 17.2211C88.2036 17.4449 88.2299 17.6951 88.2299 17.9716V24.8446C88.2299 25.0947 88.2036 25.3383 88.1509 25.5753C88.1114 25.7992 87.9863 25.9769 87.7756 26.1086C87.5781 26.2402 87.2358 26.3061 86.7486 26.3061ZM86.7486 15.0091C86.2483 15.0091 85.8928 14.9367 85.6821 14.7918C85.4715 14.647 85.3398 14.4561 85.2871 14.2191C85.2476 13.9821 85.2279 13.7319 85.2279 13.4686C85.2279 13.1921 85.2542 12.9419 85.3069 12.7181C85.3596 12.4811 85.4912 12.2967 85.7019 12.1651C85.9126 12.0202 86.2681 11.9478 86.7684 11.9478C87.2556 11.9478 87.6045 12.0202 87.8151 12.1651C88.0258 12.3099 88.1509 12.5008 88.1904 12.7378C88.2431 12.9748 88.2694 13.225 88.2694 13.4883C88.2694 13.7517 88.2431 14.0018 88.1904 14.2388C88.1509 14.4758 88.0258 14.6667 87.8151 14.8116C87.6045 14.9432 87.249 15.0091 86.7486 15.0091ZM94.8926 26.3061C94.2211 26.3061 93.6417 26.2337 93.1546 26.0888C92.6806 25.944 92.2856 25.7202 91.9696 25.4173C91.6536 25.1145 91.4166 24.7327 91.2586 24.2718C91.1137 23.7978 91.0413 23.2382 91.0413 22.5931V14.5746C91.0413 14.3112 91.0611 14.0742 91.1006 13.8636C91.1532 13.6529 91.2849 13.4817 91.4956 13.3501C91.7062 13.2052 92.0486 13.1328 92.5226 13.1328C92.9966 13.1328 93.3389 13.2052 93.5496 13.3501C93.7602 13.4949 93.8853 13.6792 93.9248 13.9031C93.9775 14.1269 94.0038 14.3705 94.0038 14.6338V22.4746C94.0038 22.6852 94.017 22.863 94.0433 23.0078C94.0828 23.1395 94.1355 23.2382 94.2013 23.3041C94.2672 23.3699 94.3593 23.416 94.4778 23.4423C94.5963 23.4687 94.7412 23.4818 94.9123 23.4818C95.202 23.4818 95.4587 23.5082 95.6826 23.5608C95.9064 23.6135 96.0776 23.732 96.1961 23.9163C96.3277 24.1007 96.3936 24.4101 96.3936 24.8446C96.3936 25.3186 96.3212 25.6609 96.1763 25.8716C96.0315 26.0822 95.8406 26.2073 95.6036 26.2468C95.3797 26.2863 95.1427 26.3061 94.8926 26.3061ZM90.4291 16.5891H92.6016L95.3271 16.5101C95.5772 16.5101 95.8142 16.5364 96.0381 16.5891C96.2619 16.6286 96.4462 16.7537 96.5911 16.9643C96.7359 17.175 96.8083 17.5239 96.8083 18.0111C96.8083 18.4587 96.7359 18.7879 96.5911 18.9986C96.4594 19.2092 96.2817 19.3475 96.0578 19.4133C95.834 19.466 95.5904 19.4923 95.3271 19.4923L92.7398 19.4331H90.3501C89.9682 19.4199 89.6983 19.308 89.5403 19.0973C89.3955 18.8735 89.3231 18.5048 89.3231 17.9913C89.3231 17.5173 89.4152 17.1684 89.5996 16.9446C89.7839 16.7076 90.0604 16.5891 90.4291 16.5891Z" fill="white"/>
<path d="M15.1605 11.0775L14.6683 11.2653C13.4579 11.7272 12.5462 12.767 12.2334 14.0241C12.1119 14.5124 11.8945 14.9777 11.5963 15.3829L11.091 16.0694C10.5436 16.813 10.459 17.8006 10.872 18.6265C11.261 19.4045 12.0322 19.9191 12.9 19.9796L14.0902 20.0627C14.5535 20.095 15.0091 20.1981 15.4412 20.3684L16.2212 20.6757C17.5043 21.1814 18.5458 22.158 19.1328 23.4061C19.2628 23.6827 19.3692 23.9698 19.4508 24.2643L19.7449 25.3264C19.9199 25.9584 19.8553 26.6327 19.5634 27.22C19.1835 27.9844 19.1936 28.8848 19.5906 29.6405L19.71 29.8678C19.9103 30.249 20.2158 30.5647 20.5904 30.7772C21.3391 31.202 22.2646 31.1617 22.9736 30.6735L23.5956 30.2452C23.8268 30.086 24.0378 29.8991 24.2237 29.6888L25.0737 28.7277C25.4136 28.3433 25.6012 27.848 25.6012 27.3349C25.6012 26.4951 26.101 25.7358 26.8725 25.4038L27.0005 25.3487C27.4024 25.1758 27.747 24.8924 27.9944 24.5314L29.1712 22.8145L30.538 21.0024C30.7485 20.7233 30.9375 20.4287 31.1034 20.121L31.7554 18.9117C32.1359 18.206 32.245 17.3855 32.0621 16.605C31.7958 15.4682 30.9457 14.5585 29.8296 14.2158L28.5592 13.8257L27.0953 13.4724C26.1372 13.2411 25.307 12.6454 24.7809 11.8119C24.2449 10.9624 23.3933 10.3607 22.4136 10.139L21.126 9.84772L20.6103 9.73915C19.0782 9.4166 17.4806 9.71088 16.164 10.5582L16.0782 10.6135C15.7891 10.7995 15.4816 10.955 15.1605 11.0775Z" fill="white" fill-opacity="0.3" stroke="#5C9ECF" stroke-width="2.958" stroke-linejoin="round"/>
<ellipse cx="1.15997" cy="1.1475" rx="1.15997" ry="1.1475" transform="matrix(-1 0 0 1 14.1992 10.85)" fill="white"/>
<ellipse cx="1.17245" cy="1.1475" rx="1.17245" ry="1.1475" transform="matrix(-1 0 0 1 16.8555 9.70755)" fill="white"/>
<ellipse cx="1.15997" cy="1.1475" rx="1.15997" ry="1.1475" transform="matrix(-1 0 0 1 19.2988 8.25)" fill="white"/>
<ellipse cx="1.17272" cy="1.1475" rx="1.17272" ry="1.1475" transform="matrix(-1 0 0 1 25.0742 9.39999)" fill="white"/>
<ellipse cx="1.17272" cy="1.1475" rx="1.17272" ry="1.1475" transform="matrix(-1 0 0 1 22.2871 8.66202)" fill="white"/>
<ellipse cx="1.15997" cy="1.1475" rx="1.15997" ry="1.1475" transform="matrix(-1 0 0 1 26.8477 11.7001)" fill="white"/>
<path d="M27.2778 13.8476C27.2778 14.4813 27.8085 14.9951 28.4631 14.9951C29.1177 14.9951 29.6484 14.4813 29.6484 13.8476C29.6484 13.2138 29.1177 12.7001 28.4631 12.7001C27.8085 12.7001 27.2778 13.2138 27.2778 13.8476Z" fill="white"/>
<ellipse cx="1.17272" cy="1.1475" rx="1.17272" ry="1.1475" transform="matrix(-1 0 0 1 32.3242 13.65)" fill="white"/>
<ellipse cx="1.17258" cy="1.1475" rx="1.17258" ry="1.1475" transform="matrix(-1 0 0 1 33.4746 16.2001)" fill="white"/>
<ellipse cx="1.18533" cy="1.1475" rx="1.18533" ry="1.1475" transform="matrix(-1 0 0 1 30.8496 21.15)" fill="white"/>
<ellipse cx="1.18533" cy="1.1475" rx="1.18533" ry="1.1475" transform="matrix(-1 0 0 1 29.1992 23.35)" fill="white"/>
<ellipse cx="1.15997" cy="1.1475" rx="1.15997" ry="1.1475" transform="matrix(-1 0 0 1 32.498 18.8)" fill="white"/>
<ellipse cx="1.17272" cy="1.1475" rx="1.17272" ry="1.1475" transform="matrix(-0.993228 0.116181 0.116181 0.993228 15.7168 18.811)" fill="white"/>
<ellipse cx="1.17272" cy="1.1475" rx="1.17272" ry="1.1475" transform="matrix(-1 0 0 1 12.9238 18.6)" fill="white"/>
<path d="M9.37927 17.3476C9.37927 17.9813 9.89861 18.4951 10.5392 18.4951C11.1799 18.4951 11.6992 17.9813 11.6992 17.3476C11.6992 16.7138 11.1799 16.2001 10.5392 16.2001C9.89861 16.2001 9.37927 16.7138 9.37927 17.3476Z" fill="white"/>
<ellipse cx="1.17272" cy="1.1475" rx="1.17272" ry="1.1475" transform="matrix(-1 0 0 1 13.0742 13.65)" fill="white"/>
<path d="M13.8655 24.7041L15.4848 23.5937L18.0784 25.3369L17.2691 17.2045L20.0546 15.11L23.7711 15.7428L24.8306 19.3701L26.4722 19.3033L28.0052 24.0465L27.7803 28.5408L20.4079 31.8575L16.8167 28.724L13.8655 24.7041Z" fill="#5C9ECF"/>
<path d="M25.469 22.5371L24.877 19.627M24.877 19.627C24.5216 17.8798 26.7182 17.9381 27.1834 19.1578C27.6485 20.3775 28.248 23.1374 28.4914 25.5881C28.7348 28.0387 27.9152 29.5858 26.3127 30.8162M24.877 19.627L24.1824 16.2122C24.1679 16.1409 24.1522 16.0728 24.1276 16.0044C23.6287 14.6207 21.6575 15.149 21.7891 16.4538M24.877 19.627L25.4698 22.541M24.877 19.627L24.8723 19.6283M18.1277 25.0043C17.6053 24.4464 16.763 23.7902 15.7738 23.4635C14.6329 23.0868 13.4763 23.9372 14.1592 25.1474C14.8422 26.3576 15.5114 26.4936 16.714 28.392C17.9165 30.2904 18.8824 31.2217 20.8157 31.7502M18.1277 25.0043C18.1277 25.0043 16.8424 19.2096 16.6284 17.5302C16.4144 15.8509 18.7325 15.5042 19.1503 16.9715M18.1277 25.0043L18.693 25.6547M20.3053 22.6495L18.9305 15.7403C18.8986 15.5802 18.8738 15.416 18.8985 15.2547C19.0978 13.9548 21.0768 13.6933 21.4655 15.0857C21.5504 15.3897 21.6633 15.875 21.7891 16.4538M21.7891 16.4538C22.2741 18.685 22.9506 22.3072 22.9506 22.3072M21.7891 16.4538C21.79 16.4625 21.791 16.4712 21.792 16.4799" stroke="#5C9ECF" stroke-width="2.4" stroke-linecap="round" stroke-linejoin="round"/>
<path d="M25.469 22.5371L24.877 19.627M24.877 19.627C24.5216 17.8798 26.7182 17.9381 27.1834 19.1578C27.6485 20.3775 28.1824 22.7661 28.4258 25.2168C28.6692 27.6674 27.3199 29.359 25.7174 30.5895M24.877 19.627L24.1824 16.2122C24.1679 16.1409 24.1522 16.0728 24.1276 16.0044C23.6287 14.6207 21.6575 15.149 21.7891 16.4538M24.877 19.627L25.4698 22.541M24.877 19.627L24.8723 19.6283M21.1159 31.2959C19.1825 30.7674 17.8796 30.1088 16.677 28.2104C15.4745 26.312 14.8422 26.3576 14.1592 25.1474C13.4763 23.9372 14.6329 23.0868 15.7738 23.4635C16.763 23.7902 17.6053 24.4464 18.1277 25.0043C17.4571 23.4682 16.8424 19.2096 16.6284 17.5302C16.4144 15.8509 18.7574 15.5029 19.1752 16.9703M20.3053 22.6495L18.9305 15.7403C18.8986 15.5802 18.8738 15.416 18.8985 15.2547C19.0978 13.9548 21.0768 13.6933 21.4655 15.0857C21.5504 15.3897 21.6633 15.875 21.7891 16.4538M21.7891 16.4538C22.2741 18.685 22.9506 22.3072 22.9506 22.3072M21.7891 16.4538C21.79 16.4625 21.791 16.4712 21.792 16.4799" stroke="white" stroke-width="1.25" stroke-linecap="round" stroke-linejoin="round"/>
<rect x="1.125" y="1.125" width="107.397" height="37.75" rx="18.8234" stroke="white" stroke-width="2.25"/>
</svg>
