<svg width="94" height="40" viewBox="0 0 94 40" fill="none" xmlns="http://www.w3.org/2000/svg">
<rect width="94" height="40" rx="20" fill="#E1EEFD"/>
<path d="M22.0688 14.4134C23.6564 14.4134 24.8182 14.7237 25.5543 15.3443C26.3048 15.9505 26.6801 16.8959 26.6801 18.1804C26.6801 19.4505 26.3048 20.3887 25.5543 20.9948C24.8038 21.5866 23.6492 21.8825 22.0904 21.8825H20.2285V25H18.4316V14.4134H22.0688ZM22.2852 20.2804C23.2378 20.2804 23.9017 20.1 24.277 19.7392C24.6667 19.3784 24.8615 18.8082 24.8615 18.0289C24.8615 17.3072 24.6378 16.7948 24.1904 16.4918C23.743 16.1887 23.0213 16.0371 22.0255 16.0371H20.2285V20.2804H22.2852ZM36.3369 25H34.7998V23.9175C34.1215 24.7258 33.2266 25.1299 32.1153 25.1299C31.2637 25.1299 30.5637 24.8918 30.0153 24.4155C29.4813 23.9247 29.2143 23.2897 29.2143 22.5103C29.2143 21.7309 29.5029 21.1392 30.0802 20.7351C30.6576 20.3309 31.4514 20.1289 32.4617 20.1289H34.6699V19.8258C34.6699 18.7577 34.071 18.2237 32.873 18.2237C32.1225 18.2237 31.3431 18.4979 30.5349 19.0464L29.7771 17.9856C30.773 17.2062 31.8844 16.8165 33.1112 16.8165C34.107 16.8165 34.8936 17.0691 35.471 17.5742C36.0483 18.0649 36.3369 18.8082 36.3369 19.8041V25ZM34.6483 21.3196H32.7431C31.5163 21.3196 30.9029 21.7021 30.9029 22.467C30.9029 22.8567 31.0545 23.1598 31.3576 23.3763C31.6607 23.5784 32.0864 23.6794 32.6349 23.6794C33.1978 23.6794 33.6741 23.5278 34.0637 23.2247C34.4534 22.9072 34.6483 22.4959 34.6483 21.9907V21.3196ZM41.6595 25H39.9708V13.7639H41.6595V25ZM53.6324 20.9299C53.6324 22.1423 53.2571 23.1454 52.5066 23.9392C51.7561 24.733 50.8612 25.1299 49.8221 25.1299C48.7973 25.1299 47.8808 24.6825 47.0726 23.7876V27.9443H45.3839V16.9464H47.0726V18.3536C47.7509 17.3289 48.6241 16.8165 49.6922 16.8165C50.8035 16.8165 51.7344 17.199 52.485 17.9639C53.2499 18.7289 53.6324 19.7175 53.6324 20.9299ZM49.4324 23.6144C50.1252 23.6144 50.7097 23.3691 51.186 22.8784C51.6767 22.3732 51.9221 21.7381 51.9221 20.9732C51.9221 20.2082 51.6767 19.5732 51.186 19.068C50.7097 18.5629 50.1324 18.3103 49.454 18.3103C48.7757 18.3103 48.2056 18.5701 47.7437 19.0897C47.2819 19.5948 47.0509 20.2227 47.0509 20.9732C47.0509 21.7381 47.2819 22.3732 47.7437 22.8784C48.2056 23.3691 48.7685 23.6144 49.4324 23.6144ZM56.6543 21.2763V19.6742H61.6986V21.2763H56.6543ZM66.9632 25H65.2745V16.9464H66.9632V25ZM65.0581 14.5649C65.0581 14.2763 65.1591 14.0309 65.3611 13.8289C65.5776 13.6124 65.8374 13.5041 66.1405 13.5041C66.4292 13.5041 66.6745 13.6124 66.8766 13.8289C67.0931 14.0309 67.2014 14.2763 67.2014 14.5649C67.2014 14.868 67.0931 15.1278 66.8766 15.3443C66.6745 15.5464 66.4292 15.6474 66.1405 15.6474C65.8374 15.6474 65.5849 15.5392 65.3828 15.3227C65.1663 15.1206 65.0581 14.868 65.0581 14.5649ZM72.766 18.3103V22.4021C72.766 22.7918 72.867 23.1021 73.0691 23.333C73.2856 23.5495 73.5742 23.6577 73.9351 23.6577C74.267 23.6577 74.6134 23.4773 74.9742 23.1165L75.667 24.3289C75.0608 24.8629 74.4041 25.1299 73.6969 25.1299C72.9608 25.1299 72.3402 24.8773 71.8351 24.3722C71.3299 23.8526 71.0773 23.1814 71.0773 22.3588V18.3103H70.0598V16.9464H71.0773V14.4134H72.766V16.9464H74.8876V18.3103H72.766Z" fill="#D81D99"/>
</svg>
