<svg width="94" height="40" viewBox="0 0 94 40" fill="none" xmlns="http://www.w3.org/2000/svg">
<rect width="94" height="40" rx="20" fill="#E1EEFD"/>
<path d="M20.5757 15.9258C21.9365 15.9258 22.9324 16.1918 23.5633 16.7237C24.2066 17.2433 24.5282 18.0536 24.5282 19.1546C24.5282 20.2433 24.2066 21.0474 23.5633 21.567C22.92 22.0742 21.9303 22.3278 20.5942 22.3278H18.9984V25H17.4581V15.9258H20.5757ZM20.7612 20.9546C21.5777 20.9546 22.1468 20.8 22.4685 20.4907C22.8025 20.1814 22.9695 19.6928 22.9695 19.0247C22.9695 18.4062 22.7777 17.967 22.3942 17.7072C22.0107 17.4474 21.3922 17.3175 20.5386 17.3175H18.9984V20.9546H20.7612ZM28.8831 22.9402L27.9738 25H26.3408L30.3491 15.9258H31.9821L35.9717 25H34.3388L33.4295 22.9402H28.8831ZM32.8171 21.5113L31.1656 17.7814L29.514 21.5113H32.8171ZM38.4855 25V15.9258H40.0257V23.5526H44.1638V25H38.4855ZM50.2007 15.9258C51.5615 15.9258 52.5574 16.1918 53.1883 16.7237C53.8316 17.2433 54.1532 18.0536 54.1532 19.1546C54.1532 20.2433 53.8316 21.0474 53.1883 21.567C52.545 22.0742 51.5553 22.3278 50.2192 22.3278H48.6234V25H47.0831V15.9258H50.2007ZM50.3862 20.9546C51.2027 20.9546 51.7718 20.8 52.0935 20.4907C52.4275 20.1814 52.5945 19.6928 52.5945 19.0247C52.5945 18.4062 52.4027 17.967 52.0192 17.7072C51.6357 17.4474 51.0172 17.3175 50.1636 17.3175H48.6234V20.9546H50.3862ZM56.8937 21.8082V20.4351H61.2174V21.8082H56.8937ZM64.6652 15.9258H66.2054V25H64.6652V15.9258ZM73.3911 17.3175V25H71.8509V17.3175H69.1045V15.9258H76.1375V17.3175H73.3911Z" fill="#2E7BB4"/>
</svg>
